<svg xmlns="http://www.w3.org/2000/svg" xmlns:xlink="http://www.w3.org/1999/xlink" width="1em" height="1em" preserveAspectRatio="xMidYMid meet" viewBox="0 0 32 32" style="-ms-transform: rotate(360deg); -webkit-transform: rotate(360deg); transform: rotate(360deg);"><path d="M16 2C8.2 2 2 8.2 2 16s6.2 14 14 14s14-6.2 14-14S23.8 2 16 2zm0 26C9.4 28 4 22.6 4 16S9.4 4 16 4s12 5.4 12 12s-5.4 12-12 12z" fill="currentColor"/><path d="M21.4 23L16 17.6L10.6 23L9 21.4l5.4-5.4L9 10.6L10.6 9l5.4 5.4L21.4 9l1.6 1.6l-5.4 5.4l5.4 5.4z" fill="currentColor"/></svg>