<svg xmlns="http://www.w3.org/2000/svg" xmlns:xlink="http://www.w3.org/1999/xlink" width="20" height="20" preserveAspectRatio="xMidYMid meet" viewBox="0 0 36 36" style="-ms-transform: rotate(360deg); -webkit-transform: rotate(360deg); transform: rotate(360deg);"><path class="clr-i-outline clr-i-outline-path-1" d="M27 33H5a2 2 0 0 1-2-2V9a2 2 0 0 1 2-2h10v2H5v22h22V21h2v10a2 2 0 0 1-2 2z" fill="currentColor"/><path class="clr-i-outline clr-i-outline-path-2" d="M18 3a1 1 0 0 0 0 2h11.59L15.74 18.85a1 1 0 1 0 1.41 1.41L31 6.41V18a1 1 0 0 0 2 0V3z" fill="currentColor"/></svg>