<svg xmlns="http://www.w3.org/2000/svg" xmlns:xlink="http://www.w3.org/1999/xlink" width="28" height="28" preserveAspectRatio="xMidYMid meet" viewBox="0 0 16 16" style="-ms-transform: rotate(360deg); -webkit-transform: rotate(360deg); transform: rotate(360deg);"><path fill="#626262" d="M8 1c3.9 0 7 3.1 7 7s-3.1 7-7 7s-7-3.1-7-7s3.1-7 7-7zm0-1C3.6 0 0 3.6 0 8s3.6 8 8 8s8-3.6 8-8s-3.6-8-8-8z"/><path fill="#626262" d="M12.2 10.8L9.4 8l2.8-2.8l-1.4-1.4L8 6.6L5.2 3.8L3.8 5.2L6.6 8l-2.8 2.8l1.4 1.4L8 9.4l2.8 2.8z"/><rect x="0" y="0" width="16" height="16" fill="rgba(0, 0, 0, 0)" /></svg>