<svg xmlns="http://www.w3.org/2000/svg" xmlns:xlink="http://www.w3.org/1999/xlink" aria-hidden="true" focusable="false" width="100" height="100" style="-ms-transform: rotate(360deg); -webkit-transform: rotate(360deg); transform: rotate(360deg);" preserveAspectRatio="xMidYMid meet" viewBox="0 0 24 24"><path d="M6 3v4h2V5h8v2h2V3H6M5 8a3 3 0 0 0-3 3v6h3v-3h14v3h3v-6a3 3 0 0 0-3-3H5m13 2a1 1 0 0 1 1 1a1 1 0 0 1-1 1a1 1 0 0 1-1-1a1 1 0 0 1 1-1M7 16v5h2v-5H7m4 0v4h2v-4h-2m4 0v5h2v-5h-2z" fill="black"/></svg>